<?xml version="1.0" encoding="UTF-8"?>
<svg xmlns="http://www.w3.org/2000/svg" width="109" height="29" viewBox="0 0 109 29" fill="none">
  <path d="M56.6359 13.5665C56.6359 16.7196 55.4979 18.1302 52.9594 18.1302C50.4208 18.1302 49.2828 16.7196 49.2828 13.5665V4.85408H45.8689V13.8984C45.8689 18.5451 48.4075 21.1173 52.8718 21.1173C57.3362 21.1173 59.8747 18.5451 59.8747 13.8984V4.85408H56.5483V13.5665H56.6359ZM75.3686 12.7368C75.3686 16.5536 72.7425 18.2961 70.204 18.2961C66.8776 18.2961 65.1269 15.5579 65.1269 12.7368C65.1269 9.16881 67.6654 7.26037 70.204 7.26037C73.2677 7.26037 75.3686 9.50072 75.3686 12.7368ZM70.8167 4.35622C68.5408 4.35622 66.5275 5.35193 65.1269 7.26037V4.85408H61.8005V27.5064H65.1269V18.2961C66.5275 20.1216 68.4533 21.1173 70.6417 21.1173C73.0051 21.1173 75.106 20.2046 76.5066 18.5451C77.8196 17.0515 78.5199 14.8941 78.5199 12.6538C78.5199 10.4134 77.7321 8.50501 76.4191 6.92847C75.106 5.26896 73.0051 4.35622 70.8167 4.35622ZM29.1495 5.18598C28.2742 4.68813 27.3988 4.35622 26.4359 4.35622C24.4226 4.35622 22.8469 5.35193 21.9716 7.1774V4.85408H18.6452V20.5365H22.0591V12.8197C22.0591 10.3305 22.4968 7.42632 25.7356 7.42632C26.1733 7.42632 26.611 7.5093 27.0487 7.67525L29.1495 5.18598ZM13.4806 4.85408V7.34335C12.08 5.43491 10.1542 4.35622 7.79072 4.35622C5.60231 4.35622 3.50145 5.26896 2.10087 6.84549C0.787825 8.33906 0 10.4134 0 12.5708C0 14.8941 0.700289 16.9685 2.01333 18.4621C3.41391 20.1216 5.51478 21.0343 7.87825 21.0343C10.0667 21.0343 11.9925 20.0386 13.393 18.2132V20.5365C13.393 23.2747 12.8678 26.0959 8.84115 26.0959C5.86492 26.0959 4.02666 24.4363 4.02666 21.8641V21.7811H0.787825V21.8641C0.875361 26.0959 4.1142 29 8.75361 29C15.9316 29 16.8069 24.0215 16.8069 19.7067V4.7711H13.4806V4.85408ZM8.2284 18.2132C4.90202 18.2132 3.1513 15.475 3.1513 12.6538C3.1513 9.08584 5.68985 7.1774 8.2284 7.1774C11.2922 7.1774 13.393 9.41774 13.393 12.6538C13.4806 16.5536 10.8545 18.2132 8.2284 18.2132ZM44.0307 9.33476C43.6805 8.33906 43.1553 7.42632 42.3675 6.67954C41.5797 5.93276 40.7043 5.35193 39.7414 4.93705C37.4655 4.1073 34.8394 4.1073 32.5634 4.93705C31.6005 5.35193 30.6376 5.93276 29.9374 6.67954C29.2371 7.42632 28.6243 8.33906 28.2742 9.33476C27.924 10.4134 27.6614 11.5751 27.749 12.7368C27.749 13.8984 27.924 15.0601 28.3617 16.1388C28.7119 17.1345 29.2371 18.0472 30.0249 18.794C30.8127 19.5408 31.6881 20.1216 32.651 20.5365C34.9269 21.3662 37.553 21.3662 39.8289 20.5365C40.7918 20.1216 41.7547 19.5408 42.455 18.794C43.1553 18.0472 43.7681 17.1345 44.1182 16.1388C44.4684 15.0601 44.731 13.8984 44.731 12.7368C44.6434 11.5751 44.3808 10.4134 44.0307 9.33476ZM38.3408 18.0472C36.9403 18.711 35.1895 18.711 33.7889 18.0472C33.1762 17.7153 32.651 17.2175 32.2133 16.7196C31.7756 16.1388 31.513 15.475 31.3379 14.8112C30.9878 13.4006 30.9878 11.99 31.3379 10.5794C31.513 9.91559 31.8632 9.25179 32.2133 8.67096C32.651 8.09013 33.1762 7.67525 33.7889 7.34335C35.1895 6.67954 36.9403 6.67954 38.3408 7.34335C38.9536 7.67525 39.4788 8.1731 39.9165 8.67096C40.3542 9.25179 40.6168 9.91559 40.7918 10.5794C41.142 11.99 41.142 13.4006 40.7918 14.8112C40.6168 15.475 40.2666 16.1388 39.9165 16.7196C39.5663 17.3004 39.0411 17.7153 38.3408 18.0472ZM108.125 10.5379C106.724 11.1187 105.323 11.4506 104.273 11.4506C103.398 11.4506 102.785 11.2847 102.522 10.8698C102.172 10.4549 102.085 9.79113 102.347 8.79542L103.135 5.22747C103.573 3.48498 103.398 2.15737 102.61 1.24464C101.91 0.414878 100.859 0.0829757 99.4586 0.0829757C97.8829 0.0829757 96.4823 0.58083 95.0818 1.65951C94.469 0.58083 93.4186 0.0829757 91.7554 0.0829757C90.4423 0.0829757 89.1293 0.497854 87.9038 1.41059C87.3786 0.58083 86.0655 0 84.5774 0C83.7896 0 83.0018 0.165951 82.3015 0.414878L82.1264 0.497854L81.6012 3.0701L82.3015 2.82117C83.3519 2.40629 84.1397 2.40629 84.4899 2.90415C84.7525 3.23605 84.84 3.73391 84.665 4.39771L82.7392 12.1144H86.0655L87.3786 6.72103C88.0789 4.06581 89.3044 2.82117 91.0551 2.82117C91.4928 2.82117 91.8429 2.98712 92.1055 3.23605C92.3681 3.56795 92.4557 4.23176 92.1931 5.14449L90.5299 12.0315H93.8562L95.4319 5.72532C95.8696 3.98283 97.2702 2.82117 98.8458 2.82117C99.371 2.82117 99.7212 2.98712 99.9838 3.23605C100.246 3.56795 100.334 4.23176 100.071 5.14449L99.1084 9.04435C98.7583 10.6209 98.9333 11.9485 99.8087 12.8612C100.684 13.774 101.997 14.3548 103.748 14.3548C105.323 14.3548 106.812 13.9399 108.212 13.3591L108.387 13.2761L109 10.289L108.125 10.5379Z" fill="#99B3BE"></path>
</svg>
