<?xml version="1.0" encoding="UTF-8"?>
<svg xmlns="http://www.w3.org/2000/svg" width="132" height="40" viewBox="0 0 132 40" fill="none">
  <path d="M102.864 6.49375L107.657 33.5063H100.052L98.1482 17.9656L93.9887 33.5063H87.1632L83.0037 17.9656L81.1001 33.5063H73.4956L78.2884 6.49375H86.3341L90.5771 22.3656L94.8202 6.49375H102.866H102.864ZM66.6519 6.49375L60.4604 24.7227L54.269 6.49375H46.3918L56.3077 33.5063H64.6139L74.5298 6.49375H66.6526H66.6519ZM118.691 26.5914V6.49375H111.415V33.5063H129.462L132 26.5906H118.691L118.691 26.5914ZM38.8769 36.2242V40H35.2071L19.4385 23.7758L3.66977 40H0V36.2242L15.7687 20L0 3.77578V0H3.66977L19.4385 16.2242L35.2071 0H38.8769V3.77578L23.1082 20L38.8769 36.2242ZM23.2935 0L19.4385 3.96641L15.5834 0H8.95232L19.4377 10.7883L29.9238 0H23.2927H23.2935ZM29.9238 40L19.4385 29.2117L8.95308 40H15.5842L19.4392 36.0336L23.2943 40H29.9253H29.9238ZM38.8769 23.9664L35.0219 20L38.8769 16.0336V9.21094L28.3915 19.9992L38.8769 30.7875V23.9648V23.9664ZM0 30.7883L10.4854 20L0 9.21172V16.0344L3.85504 20.0008L0 23.9664V30.7891V30.7883Z" fill="#99B3BE"></path>
</svg>
